<?xml version="1.0" encoding="utf-8"?>
<!-- Generator: Adobe Illustrator 24.0.1, SVG Export Plug-In . SVG Version: 6.00 Build 0)  -->
<svg version="1.1" id="Layer_1" xmlns="http://www.w3.org/2000/svg" xmlns:xlink="http://www.w3.org/1999/xlink" x="0px" y="0px"
	 viewBox="0 0 500 500" style="enable-background:new 0 0 500 500;" xml:space="preserve">
<style type="text/css">
	.st0{fill:none;stroke:#6E6E6E;stroke-width:2.4495;stroke-linecap:round;stroke-linejoin:round;stroke-miterlimit:10;}
	.st1{fill:#FFFFFF;stroke:#6E6E6E;stroke-width:2.4495;stroke-linecap:round;stroke-linejoin:round;stroke-miterlimit:10;}
</style>
<g>
	<path class="st0" d="M136.2,384.59c-7.17,1.59-10.42,3.85-10.42,6.35c0,4.81,18.27,8.72,40.82,8.72c22.54,0,40.82-3.9,40.82-8.72
		c0-2.41-4.57-4.58-11.95-6.16"/>
	<g>
		<g>
			<path class="st0" d="M164.75,366.34v-32.5c4.14,4.14,21.96,3.99,25.95,0v54.76c-1.25,2.83-13.69,3.8-20.89,2.42"/>
			<path class="st0" d="M174.89,330.8c-5.08,0.32-9.56,1.33-10.13,3.04"/>
			<path class="st0" d="M190.7,333.84c0.22-1.78-4.15-2.81-9.38-3.08"/>
			<path class="st0" d="M177.73,319.11c0,0,7.04,7.43,0,10.09v4.12"/>
			<path class="st0" d="M177.73,319.11c0,0-7.04,7.43,0,10.09"/>
		</g>
		<g>
			<path class="st0" d="M141.53,391.02c1.52,4.36,26.58,3.84,28.28,0v-19.78c-3.99,3.99-24.15,4.13-28.28,0V391.02z"/>
			<path class="st0" d="M151.67,368.2c-5.08,0.32-9.56,1.33-10.13,3.04"/>
			<path class="st0" d="M169.81,371.24c0.22-1.78-5.32-2.81-10.55-3.08"/>
			<path class="st0" d="M155.67,356.51c0,0,7.04,7.43,0,10.09v4.12"/>
			<path class="st0" d="M155.67,356.51c0,0-7.04,7.43,0,10.09"/>
		</g>
		<path class="st0" d="M156.07,332.3c0,4.04,2.33,4.04,2.33,8.07c0,4.04-2.33,4.04-2.33,8.07"/>
		<path class="st0" d="M150.5,332.3c0,4.04,2.33,4.04,2.33,8.07c0,4.04-2.33,4.04-2.33,8.07"/>
		<line class="st0" x1="168.79" y1="340.37" x2="168.79" y2="362.76"/>
		<line class="st0" x1="145.49" y1="376.73" x2="145.49" y2="389.16"/>
	</g>
</g>
<g>
	<g>
		<path class="st0" d="M440.61,53.56c2.63-2.38,1.4-10.04,11.59-13.98c10.85-4.19,20.06,3.37,22.45,7.24
			c2.38,3.87,5.94,6.74,5.94,6.74s-3.56,2.88-5.94,6.74c-2.38,3.86-11.59,11.43-22.45,7.24C442.01,63.6,443.24,55.94,440.61,53.56z"
			/>
		<line class="st0" x1="480.59" y1="53.56" x2="461.13" y2="53.56"/>
		<line class="st0" x1="457.88" y1="53.56" x2="453.15" y2="53.56"/>
	</g>
	<g>
		<path class="st0" d="M475.88,18.29c0,0-11.98,1-13.76,13.76"/>
		<path class="st0" d="M475.88,18.29c0,0-1,11.98-13.76,13.76"/>
	</g>
	<g>
		<path class="st0" d="M440.61,53.56c-2.38-2.63-10.04-1.4-13.98-11.59c-4.19-10.85,3.37-20.06,7.24-22.45
			c3.86-2.38,6.74-5.94,6.74-5.94s2.88,3.56,6.74,5.94c3.87,2.38,11.43,11.59,7.24,22.45C450.65,52.16,442.99,50.93,440.61,53.56z"
			/>
		<line class="st0" x1="440.61" y1="13.57" x2="440.61" y2="33.04"/>
		<line class="st0" x1="440.61" y1="36.29" x2="440.61" y2="41.02"/>
	</g>
	<g>
		<path class="st0" d="M405.34,18.29c0,0,1,11.98,13.76,13.76"/>
		<path class="st0" d="M405.34,18.29c0,0,11.98,1,13.76,13.76"/>
	</g>
	<g>
		<path class="st0" d="M440.61,53.56c-2.63,2.38-1.4,10.04-11.59,13.98c-10.85,4.19-20.06-3.37-22.45-7.24
			c-2.38-3.87-5.94-6.74-5.94-6.74s3.56-2.88,5.94-6.74c2.38-3.87,11.59-11.43,22.45-7.24C439.21,43.52,437.98,51.17,440.61,53.56z"
			/>
		<line class="st0" x1="400.63" y1="53.56" x2="420.09" y2="53.56"/>
		<line class="st0" x1="423.34" y1="53.56" x2="428.08" y2="53.56"/>
	</g>
	<g>
		<path class="st0" d="M405.34,88.83c0,0,11.98-1,13.76-13.76"/>
		<path class="st0" d="M405.34,88.83c0,0,1-11.98,13.76-13.76"/>
	</g>
	<g>
		<path class="st0" d="M440.61,53.56c2.38,2.63,10.04,1.4,13.98,11.59c4.19,10.85-3.37,20.06-7.24,22.45
			c-3.87,2.38-6.74,5.94-6.74,5.94s-2.88-3.56-6.74-5.94c-3.87-2.38-11.43-11.59-7.24-22.45C430.57,54.96,438.23,56.19,440.61,53.56
			z"/>
		<line class="st0" x1="440.61" y1="93.54" x2="440.61" y2="74.08"/>
		<line class="st0" x1="440.61" y1="70.83" x2="440.61" y2="66.09"/>
	</g>
	<g>
		<path class="st0" d="M475.88,88.83c0,0-1-11.98-13.76-13.76"/>
		<path class="st0" d="M475.88,88.83c0,0-11.98-1-13.76-13.76"/>
	</g>
</g>
<g>
	<path class="st0" d="M159.08,482.5v-7.34c0-6.44,5.22-11.66,11.66-11.66h6.09c0,0-2.89,1.24-3.34,3.56
		C173.05,469.38,173.85,482.5,159.08,482.5z"/>
	<path class="st0" d="M158.93,466.34c-2.04-1.77-4.71-2.84-7.63-2.84h-8.42c0,0,2.89,1.24,3.34,3.56
		c0.45,2.32-0.05,15.44,12.86,15.44"/>
	<g>
		<path class="st0" d="M159.08,453.29c0,0,4.24,2,5.45,7.59"/>
		<path class="st0" d="M159.08,453.29c0,0-4.24,2-5.45,7.59"/>
	</g>
</g>
<g>
	<path class="st0" d="M350.7,371.78c34.18,34.95,58.37,0,58.37,0S384.88,336.83,350.7,371.78z"/>
	<path class="st0" d="M364.56,371.78c0,8.47,6.86,15.33,15.33,15.33c8.47,0,15.33-6.86,15.33-15.33c0-8.46-6.86-15.33-15.33-15.33
		C371.42,356.45,364.56,363.31,364.56,371.78z"/>
	<path class="st0" d="M372.61,371.78c0,4.02,3.26,7.28,7.28,7.28c4.02,0,7.28-3.26,7.28-7.28c0-4.02-3.26-7.28-7.28-7.28
		C375.87,364.5,372.61,367.76,372.61,371.78z"/>
	<path class="st0" d="M379.89,367.36c-2.44,0-4.42,1.98-4.42,4.42"/>
	<line class="st0" x1="407.39" y1="363.4" x2="421.14" y2="359.21"/>
	<line class="st0" x1="398.84" y1="355.2" x2="418.6" y2="337.91"/>
	<line class="st0" x1="396.71" y1="334.98" x2="398.84" y2="330.34"/>
	<line class="st0" x1="389.03" y1="351.78" x2="394.76" y2="339.26"/>
	<line class="st0" x1="380.04" y1="349.77" x2="380.2" y2="328.65"/>
	<line class="st0" x1="362.58" y1="332.7" x2="360.79" y2="328.65"/>
	<line class="st0" x1="370.86" y1="351.41" x2="364.44" y2="336.91"/>
	<line class="st0" x1="361.52" y1="355.31" x2="343.45" y2="339.09"/>
	<line class="st0" x1="354.12" y1="363.52" x2="340.26" y2="359.08"/>
</g>
<g>
	<path class="st0" d="M249.73,400.73c0,3.42,2.77,6.19,6.19,6.19h46.91c3.42,0,6.19-2.77,6.19-6.19c0-3.42-2.77-6.19-6.19-6.19
		h-46.91C252.5,394.54,249.73,397.31,249.73,400.73z"/>
	<path class="st0" d="M246.3,371.22c0,12.88,10.44,23.32,23.32,23.32h19.5c12.88,0,23.32-10.44,23.32-23.32v-13.24H246.3V371.22z"/>
	<path class="st0" d="M289.11,386.38c8.36,0,15.16-6.8,15.16-15.16v-5.07"/>
	<path class="st0" d="M269.95,357.98l-10.25-9.45c0,0-2.23-1.96-0.71-3.12c0,0,1.98-2.32-0.53-4.01c0,0-1.1-2.17-7.32,3.66
		c-1.54,1.44-6.24,5.25-3.12,7.85c0.66,0.55,1.2,0.89,3.39-0.6c0,0,1.75-1.5,2.85,0.06l4.11,5.61"/>
	<path class="st0" d="M283.75,354.29c7.11-21.9,28.69-19.98,28.69-19.98s-1.21,14.62-15.57,19.02"/>
	<path class="st0" d="M283.75,354.29c-23.22-3.57-22.51-20.02-22.51-20.02s14.36-3.2,21.96,8.41"/>
	<path class="st0" d="M274.67,335.56c0,0,3.18-8.92,9.08-10.27c5.9,1.35,9.08,10.26,9.08,10.26"/>
</g>
<g>
	<path class="st0" d="M258.38,14.4c0,0-11.78,11.1-13.76,23.96"/>
	<path class="st0" d="M258.38,14.4c0,0,11.78,11.1,13.76,23.96"/>
	<g>
		<path class="st0" d="M280.76,34.76c1.34-7.54-0.85-13.84-0.85-13.84"/>
		<path class="st0" d="M269.04,28.96c4.84-5.71,10.87-8.05,10.87-8.05"/>
	</g>
	<g>
		<path class="st0" d="M236.84,20.92c0,0-2.19,6.3-0.85,13.84"/>
		<path class="st0" d="M236.84,20.92c0,0,6.03,2.33,10.87,8.05"/>
	</g>
	<g>
		<path class="st0" d="M258.38,85.27V63.11c0-16.1,13.05-29.15,29.16-29.15h12.83c0,0-3.84,2.01-4.85,8.02
			C294.51,47.98,294.81,87.52,258.38,85.27z"/>
		<path class="st0" d="M300.36,33.96c0,0-16.59,2.44-22.3,21.52c-3.23,10.79-9.02,26.92-19.68,29.79"/>
	</g>
	<g>
		<path class="st0" d="M258.38,85.27V63.11c0-16.1-13.05-29.15-29.15-29.15h-12.83c0,0,3.84,2.01,4.85,8.02
			C222.24,47.98,221.94,87.52,258.38,85.27z"/>
		<path class="st0" d="M216.39,33.96c0,0,16.59,2.44,22.3,21.52c3.23,10.79,9.02,26.92,19.68,29.79"/>
	</g>
</g>
<g>
	<path class="st0" d="M78.1,188.07c6.48-5.35,10.68-13.35,11.03-22.45c0-0.02,0-0.05,0.01-0.07c0.62-7.89,6.25-11.19,6.31-11.21"/>
	<path class="st0" d="M58.49,168.7v19.37c12.87,0,23.35-10.27,23.66-23.07h0.01c0.93-11.88,9.92-16.81,9.92-16.81
		s-4.35-0.47-9.92,0.06C72.25,149.19,58.49,153.26,58.49,168.7z"/>
	<path class="st0" d="M89.16,141.91v-16.52c0-8.21-6.68-14.88-14.89-14.88"/>
	<path class="st0" d="M42.7,110.51c-8.2,0-14.88,6.68-14.88,14.88v16.52"/>
	<path class="st0" d="M82.16,148.25v-22.87c0-4.35-3.53-7.88-7.89-7.88c-4.35,0-7.88,3.53-7.88,7.88v-10.5
		c0-4.35-3.53-7.88-7.89-7.88c-4.36,0-7.9,3.53-7.9,7.88v10.5c0-4.35-3.53-7.88-7.9-7.88c-4.35,0-7.88,3.53-7.88,7.88v22.87"/>
	<path class="st0" d="M21.57,154.35c0.14,0.08,5.66,3.39,6.27,11.13c0,0.02,0,0.04,0,0.06c0.33,9.04,4.67,17.12,11.25,22.54"/>
	<path class="st0" d="M24.89,148.2c0,0,8.99,4.85,9.92,16.74h0.01c0.28,12.83,10.76,23.14,23.66,23.14V168.7
		c0-15.44-13.76-19.51-23.67-20.44C29.24,147.73,24.89,148.2,24.89,148.2z"/>
	<path class="st0" d="M58.49,175.14c0-1.77,0-6.88-10.99-8.44c0.95,1.59,1.67,3.47,1.93,5.68c0.03,0.15,0.04,0.29,0.05,0.44
		c0.13,4.53,3.88,8.39,9.01,9.82V175.14z"/>
	<path class="st0" d="M58.49,175.14c0-1.77,0-6.88,10.99-8.44c-0.95,1.59-1.67,3.47-1.93,5.68c-0.03,0.15-0.04,0.29-0.05,0.44
		c-0.12,4.53-3.88,8.39-9.01,9.82V175.14z"/>
</g>
<g>
	<g>
		<path class="st0" d="M385.3,239.06c2.08,3,4.14,6.46,5.89,10.32c1.1,2.42,2.08,5,2.88,7.73c1.34,4.63,2.12,9.65,1.99,15.01
			c1.46-2.64,2.64-5.33,3.58-8c1.31-3.68,2.17-7.31,2.72-10.7c1.68-10.27,0.54-18.25,0.54-18.25
			C396.22,235.83,390.38,237.18,385.3,239.06z"/>
		<path class="st0" d="M358.43,261.75c-1.41,2.53-2.57,5.11-3.53,7.65c-1.5,3.97-2.49,7.88-3.14,11.48
			c-1.76,9.71-1.05,17.09-1.05,17.09c6.96-0.6,13.01-1.89,18.25-3.72c-2.01-2.78-3.97-5.97-5.65-9.51
			c-1.24-2.59-2.32-5.38-3.16-8.33C358.88,271.91,358.19,267,358.43,261.75z"/>
		<path class="st0" d="M372,285.77c2.53,1.39,5.11,2.54,7.67,3.46c4,1.46,7.94,2.37,11.59,2.93c10.01,1.56,17.69,0.46,17.69,0.46
			c-0.67-6.67-2.02-12.51-3.89-17.59c-2.92,2.02-6.28,4.04-10.01,5.75c-2.57,1.18-5.3,2.23-8.19,3.06
			C382.27,285.14,377.3,285.9,372,285.77z"/>
		<path class="st0" d="M346.14,240.43c0.6,6.96,1.9,13.01,3.72,18.25c2.86-2.07,6.15-4.09,9.81-5.8c2.45-1.15,5.08-2.17,7.86-2.96
			c4.56-1.31,9.54-2.02,14.84-1.78c-2.64-1.48-5.33-2.67-7.98-3.64c-3.66-1.36-7.26-2.28-10.6-2.93
			C353.8,239.68,346.14,240.43,346.14,240.43z"/>
		<path class="st0" d="M360.15,276.42c0.83,2.95,1.92,5.74,3.16,8.33c1.68,3.53,3.64,6.72,5.65,9.51
			c6.08,8.46,12.52,13.29,12.52,13.29c4.3-5.25,7.5-10.41,9.78-15.38c-3.65-0.56-7.59-1.47-11.59-2.93
			c-2.56-0.92-5.14-2.06-7.67-3.46C367.82,283.45,363.78,280.4,360.15,276.42z"/>
		<path class="st0" d="M373.96,226.22c-4.43,5.28-7.76,10.41-10.17,15.35c3.34,0.65,6.94,1.56,10.6,2.93
			c2.65,0.97,5.34,2.17,7.98,3.64c4.1,2.27,8.1,5.2,11.7,8.96c-0.79-2.72-1.77-5.3-2.88-7.73c-1.75-3.86-3.82-7.32-5.89-10.32
			C379.69,230.93,373.96,226.22,373.96,226.22z"/>
		<path class="st0" d="M402.35,253.41c-0.55,3.39-1.41,7.03-2.72,10.7c-0.94,2.66-2.12,5.35-3.58,8c-2.3,4.13-5.3,8.13-9.21,11.72
			c2.9-0.83,5.63-1.88,8.19-3.06c3.74-1.72,7.1-3.73,10.01-5.75c8.12-5.61,12.83-11.35,12.83-11.35
			C412.55,259.18,407.36,255.83,402.35,253.41z"/>
		<path class="st0" d="M336.57,271.2c5.19,4.25,10.27,7.41,15.19,9.69c0.66-3.6,1.64-7.51,3.14-11.48c0.96-2.54,2.12-5.12,3.53-7.65
			c2.3-4.15,5.27-8.19,9.1-11.83c-2.78,0.79-5.41,1.8-7.86,2.96c-3.65,1.71-6.94,3.73-9.81,5.8
			C341.4,264.76,336.57,271.2,336.57,271.2z"/>
	</g>
	<g>
		<g>
			<path class="st0" d="M390.39,265.8c0,0-6.74,4.15-12.97,0.86"/>
			<path class="st0" d="M390.39,265.8c0,0-7.22-3.22-12.97,0.86"/>
		</g>
		<g>
			<path class="st0" d="M378.28,279.63c0,0-4.15-6.73-0.86-12.97"/>
			<path class="st0" d="M378.28,279.63c0,0,3.22-7.22-0.86-12.97"/>
		</g>
		<g>
			<path class="st0" d="M364.45,267.52c0,0,6.74-4.15,12.97-0.86"/>
			<path class="st0" d="M364.45,267.52c0,0,7.22,3.22,12.97-0.86"/>
		</g>
		<g>
			<path class="st0" d="M376.56,253.69c0,0,4.15,6.73,0.86,12.97"/>
			<path class="st0" d="M376.56,253.69c0,0-3.22,7.22,0.86,12.97"/>
		</g>
	</g>
</g>
<g>
	<path class="st0" d="M446.48,172.14c0,0-0.17,6.51,3.36,9.77c3.53,3.26,18.8,20.39,18.8,20.39"/>
	<g>
		<path class="st0" d="M446.48,126.41v45.73c0,0,0.17,6.51-3.36,9.77c-3.53,3.26-18.8,20.39-18.8,20.39"/>
		<path class="st0" d="M446.5,172.14c0,0-0.17,6.51,3.36,9.77c3.53,3.26,18.8,20.39,18.8,20.39"/>
		<g>
			<path class="st0" d="M470.26,130.01c-1.96-2.74-3.94-5.01-5.53-6.83c-0.63-0.72-1.19-1.36-1.63-1.9"/>
			<path class="st0" d="M463.63,134.77c-2.57-3.58-5.34-6.46-6.88-8.37"/>
			<path class="st0" d="M483.37,137.32c-1.03-5.7-4.98-11.67-8.29-14.61"/>
			<path class="st0" d="M475.83,173.06c1.79-3.4,5.54-24.33-1.79-36.9"/>
			<path class="st0" d="M468.42,166.28c1.84-7.4,1.84-18.41-1.66-26.42"/>
		</g>
		<g>
			<path class="st0" d="M422.41,130.01c1.96-2.74,3.94-5.01,5.53-6.83c0.63-0.72,1.19-1.36,1.63-1.9"/>
			<path class="st0" d="M429.04,134.77c2.57-3.58,5.34-6.46,6.88-8.37"/>
			<path class="st0" d="M409.3,137.32c1.03-5.7,4.98-11.67,8.29-14.61"/>
			<path class="st0" d="M416.84,173.06c-1.79-3.4-5.54-24.33,1.79-36.9"/>
			<path class="st0" d="M424.25,166.28c-1.84-7.4-1.84-18.41,1.66-26.42"/>
		</g>
		<path class="st0" d="M483.37,188.29c0,0-18.54-12-22.28-16.15c-3.75-4.15-1.36-12.83-0.97-21.57
			c0.39-8.75-10.88-22.55-10.88-22.55s-2.15-3.64-5.47,0c0,0-11.27,13.8-10.88,22.55c0.39,8.75,2.78,17.43-0.97,21.57
			c-3.75,4.15-22.28,16.15-22.28,16.15"/>
	</g>
</g>
<g>
	<g>
		<g>
			<path class="st0" d="M157.91,300.11c1.03,0.54,2.19,0.79,3.36,0.79c1.16,0,2.31-0.2,3.36-0.67c14.4-6.52,19.13-23.03,19.38-44.16
				c0-9.66-7.83-17.49-17.49-17.49h-10.5c-9.66,0-17.49,7.83-17.49,17.49C139.99,274.13,141.74,291.65,157.91,300.11z"/>
			<path class="st0" d="M183.8,262.24c-1.3-17.43-43.28-16.62-44.73,0"/>
		</g>
		<g>
			<path class="st0" d="M172.84,294.77c0,0,8.82,9.03,14.81,14.76h-51.59c2.65-3.56,14.8-14.76,14.8-14.76"/>
		</g>
	</g>
	<path class="st0" d="M151.15,239.27c-0.05-0.39-0.07-0.78-0.07-1.18c0-5.63,4.57-10.19,10.19-10.19c5.63,0,10.19,4.56,10.19,10.19
		c0,0.4-0.02,0.79-0.07,1.18"/>
	<path class="st0" d="M178.01,266.88L178.01,266.88c0-2.09-1.69-3.79-3.79-3.79h-4.25c-3.22,0-5.83,2.61-5.83,5.83v13.98
		c0,2.21-1.79,4-4,4h-2.33"/>
	<path class="st0" d="M144.87,266.88L144.87,266.88c0-2.09,1.7-3.79,3.79-3.79h2.52c2.09,0,3.79,1.7,3.79,3.79l0,0"/>
	<line class="st0" x1="163.9" y1="292.16" x2="157.82" y2="292.16"/>
	<path class="st0" d="M183.08,269.73c0,0,5.91-1.17,3.35,6.33c-2.55,7.5-4.63,12.76-4.31,17.06c0,0-1.85,2.7-2.71-4.31"/>
	<path class="st0" d="M139.95,269.73c0,0-6.05-1.17-3.5,6.33c2.55,7.5,4.63,12.76,4.31,17.06c0,0,1.85,2.7,2.71-4.31"/>
</g>
<g>
	<g>
		<path class="st0" d="M351.25,86.37c0,0,29.41,2.54,30.9-24.63c1.49-27.18-31.44-26.95-30.9-57V86.37z"/>
		<path class="st0" d="M381.8,65.11c0,9.3-31.3,8.32-30.55,21.26"/>
		<path class="st0" d="M380.7,51.1c0,14.01-30.2,8.32-29.45,21.26"/>
		<path class="st0" d="M373.65,40.46c4.62,10.64-22.4,6.96-22.4,18.83"/>
		<path class="st0" d="M363.46,31.04c0,0,2.96,4.97-1.29,6.98c-4.25,2.01-10.95,3.54-10.94,7.52"/>
	</g>
	<g>
		<path class="st0" d="M351.24,86.37c0,0-29.41,2.54-30.9-24.63c-1.49-27.18,31.44-26.95,30.9-57"/>
		<path class="st0" d="M320.69,65.11c0,9.3,31.3,8.32,30.55,21.26"/>
		<path class="st0" d="M321.79,51.1c0,14.01,30.2,8.32,29.45,21.26"/>
		<path class="st0" d="M328.83,40.46c-4.61,10.64,22.4,6.96,22.4,18.83"/>
		<path class="st0" d="M339.03,31.04c0,0-2.96,4.97,1.29,6.98c4.25,2.01,10.95,3.54,10.94,7.52"/>
	</g>
</g>
<g>
	<g>
		<path class="st0" d="M171.57,159.28c-1.49-9.12-8.05-16-15.9-16c-7.85,0-14.4,6.88-15.91,16"/>
		<path class="st0" d="M140.09,168.79c1.95,8.33,8.19,14.42,15.58,14.42c7.39,0,13.63-6.09,15.58-14.41"/>
		<path class="st0" d="M172.89,178.11c0,0,24.26,9.1,21.88,16.68c0,0-1.51,11.26-14.95,4.98l-16.17-8.01c0,0-7.08-5.57-15.95,0
			l-16.17,8.01c-13.43,6.28-14.95-4.98-14.95-4.98c-2.38-7.58,21.88-16.68,21.88-16.68"/>
		<path class="st0" d="M149.18,133.31c0,3.59,2.91,6.5,6.5,6.5c3.59,0,6.5-2.91,6.5-6.5v-4.91c0-3.59-2.91-6.5-6.5-6.5
			c-3.59,0-6.5,2.91-6.5,6.5V133.31z"/>
		<g>
			<path class="st0" d="M171.57,159.28c0,0,2.1,6.99,6.66,8.74c7.45,2.85,13.75-0.84,16.7-4.78"/>
			<path class="st0" d="M194.77,146.87h-7.48c0,0-4.31,0.46-4.77,4.31c0,0-1.96,16.25-8.06,13.75"/>
		</g>
		<g>
			<path class="st0" d="M139.78,159.28c0,0-2.07,6.99-6.63,8.74c-7.45,2.85-13.75-0.84-16.7-4.78"/>
			<path class="st0" d="M116.62,146.87h7.48c0,0,4.31,0.46,4.77,4.31c0,0,1.96,16.25,8.06,13.75"/>
		</g>
	</g>
	<g>
		<line class="st0" x1="192.15" y1="136.22" x2="174.45" y2="148.98"/>
		<line class="st0" x1="184.25" y1="131.12" x2="170.56" y2="143.28"/>
		<line class="st0" x1="194.77" y1="121.77" x2="188.59" y2="127.26"/>
		<line class="st0" x1="176.66" y1="124.54" x2="166.6" y2="139.11"/>
	</g>
	<g>
		<line class="st0" x1="119.78" y1="136.22" x2="137.48" y2="148.98"/>
		<line class="st0" x1="127.68" y1="131.12" x2="141.37" y2="143.28"/>
		<line class="st0" x1="117.16" y1="121.77" x2="123.34" y2="127.26"/>
		<line class="st0" x1="135.27" y1="124.54" x2="145.33" y2="139.11"/>
	</g>
</g>
<g>
	<g>
		<path class="st0" d="M50.02,360.75c-1.99,0.76-3.16,1.85-3.16,3.37c0,4.05,8.21,7.33,18.33,7.33c10.12,0,18.32-3.28,18.32-7.33
			c0-1.51-1.15-2.59-3.11-3.35"/>
		<path class="st0" d="M76.99,363.55c-1.72,1.72-7.59,2.72-12.97,2.72c-4.43,0-9.49-1.36-11.31-2.72"/>
		<line class="st0" x1="76.99" y1="363.55" x2="76.99" y2="348.28"/>
		<line class="st0" x1="52.71" y1="363.55" x2="52.71" y2="348.28"/>
		<path class="st0" d="M61.72,345.1c-5.19,0.37-9.01,1.65-9.01,3.17c0,1.81,5.44,3.28,12.14,3.28c6.71,0,12.14-1.47,12.14-3.28
			c0-1.51-3.78-2.79-8.93-3.17"/>
		<path class="st0" d="M64.85,348.28v-4.55c0,0,8.35-6.04,0-18c0,0-8.2,9.83,0,18"/>
		<path class="st0" d="M46.86,364.12c0,6.91,5.2,14.42,18.33,14.42c13.11,0,18.32-8.48,18.32-14.42"/>
		<path class="st0" d="M68.56,378.34c0,0,0,0,0,0.01c-0.07,0.26-0.87,3.71,1.28,5.32c1.42,1.05,4.63,3.14,2.3,6.73
			c-0.85,1.31-2.19,2.03-3.58,2.41c0,0,0,0-0.01,0.01"/>
		<path class="st0" d="M62.24,392.93c-0.01-0.01-0.01-0.01-0.01-0.01c-1.53-0.35-3.04-1.09-3.98-2.52c-2.33-3.59,0.86-5.68,2.3-6.73
			c2.1-1.57,1.37-4.91,1.28-5.29c-0.01-0.02-0.01-0.04-0.01-0.04"/>
	</g>
	<path class="st0" d="M71.78,399.04c10.11,0.4,10.36,2.89,10.36,2.89c0,3-7.59,5.44-16.95,5.44c-9.36,0-16.96-2.44-16.96-5.44
		c0,0-0.59-2.7,10.73-2.91"/>
	<path class="st0" d="M62.22,392.91c0,0,2.04,3.22,0,7.45"/>
	<path class="st0" d="M68.56,392.81c0,0-2.04,3.32,0,7.55"/>
	<g>
		<line class="st0" x1="96.15" y1="361.79" x2="102.85" y2="364.91"/>
		<line class="st0" x1="83.51" y1="355.91" x2="90.96" y2="359.38"/>
		<line class="st0" x1="84.89" y1="349.5" x2="105.31" y2="350.48"/>
		<line class="st0" x1="95.93" y1="340.53" x2="83.51" y2="342.67"/>
		<line class="st0" x1="105.31" y1="338.92" x2="99.73" y2="339.88"/>
		<line class="st0" x1="92.73" y1="330.92" x2="81.29" y2="335.64"/>
		<line class="st0" x1="105.31" y1="325.73" x2="96.54" y2="329.35"/>
		<line class="st0" x1="82.14" y1="325.73" x2="75.64" y2="330.44"/>
	</g>
	<g>
		<line class="st0" x1="34.74" y1="361.79" x2="28.05" y2="364.91"/>
		<line class="st0" x1="47.38" y1="355.91" x2="39.93" y2="359.38"/>
		<line class="st0" x1="46.01" y1="349.5" x2="25.59" y2="350.48"/>
		<line class="st0" x1="34.96" y1="340.53" x2="47.38" y2="342.67"/>
		<line class="st0" x1="25.59" y1="338.92" x2="31.17" y2="339.88"/>
		<line class="st0" x1="38.17" y1="330.92" x2="49.6" y2="335.64"/>
		<line class="st0" x1="25.59" y1="325.73" x2="34.36" y2="329.35"/>
		<line class="st0" x1="48.75" y1="325.73" x2="55.26" y2="330.44"/>
	</g>
</g>
<g>
	<g>
		<path class="st0" d="M352.44,190.43c0,0-9.42,9.56-25.18,14.76c-14.18,4.68-18.59-2.02-18.26-6.2
			c1.34-17.47,36.5-18.01,36.5-18.01h1.05c0,0,35.16,0.54,36.51,18.01c0.32,4.19-4.09,10.88-18.27,6.2
			c-15.76-5.21-25.18-14.76-25.18-14.76"/>
		<path class="st0" d="M365.41,173.24v-8.26c0-11.47-9.3-20.77-20.77-20.77c-11.47,0-20.77,9.3-20.77,20.77v8.26"/>
		<path class="st0" d="M365.41,170.38v2.86c0,4.88,3.95,8.83,8.83,8.83c4.88,0,8.83-3.95,8.83-8.83v-2.86"/>
		<path class="st0" d="M323.87,170.38v2.86c0,4.88-3.95,8.83-8.83,8.83c-4.88,0-8.83-3.95-8.83-8.83v-2.86"/>
		<path class="st0" d="M335.04,135.25c0,4.95,4.01,8.95,8.96,8.95c4.95,0,8.96-4.01,8.96-8.95c0-4.95-4.01-8.96-8.96-8.96
			C339.05,126.3,335.04,130.31,335.04,135.25z"/>
	</g>
	<g>
		<path class="st0" d="M344.63,173.42c0,0-2.48-10.76-14.61-10.13C330.03,163.29,331.29,173.63,344.63,173.42z"/>
		<path class="st0" d="M344.64,173.42c0,0,2.48-10.76,14.61-10.13C359.25,163.29,357.98,173.63,344.64,173.42z"/>
		<path class="st0" d="M347.24,168.31c2.59-7.94-2.89-12.66-2.89-12.66c-3.53,4.71-3.57,9.03-2.68,12.22"/>
	</g>
</g>
<g>
	<g>
		<path class="st0" d="M225.78,264.99c0,21.14,17.15,38.29,38.29,38.29c-10.57,0-19.14-8.57-19.14-19.15
			c0-10.57,8.57-19.14,19.14-19.14c10.57,0,19.15-8.57,19.15-19.15c0-10.57-8.58-19.14-19.15-19.14
			C242.93,226.7,225.78,243.84,225.78,264.99z"/>
		<path class="st0" d="M237.3,278.79c2.49-12.51,13.55-21.96,26.78-21.96c6.06,0,10.99-4.93,10.99-10.99
			c0-6.05-4.93-10.98-10.99-10.98c-16.61,0-30.13,13.52-30.13,30.13C233.95,269.96,235.16,274.65,237.3,278.79z"/>
	</g>
	<path class="st0" d="M244.94,284.13c0,10.58,8.57,19.15,19.14,19.15c21.15,0,38.29-17.15,38.29-38.29
		c0-21.15-17.14-38.29-38.29-38.29c10.57,0,19.15,8.57,19.15,19.14c0,10.58-8.58,19.15-19.15,19.15
		C253.5,264.99,244.94,273.56,244.94,284.13z"/>
	<path class="st0" d="M264.08,295.12c16.61,0,30.13-13.52,30.13-30.13c0-4.96-1.21-9.65-3.34-13.79
		c-2.5,12.5-13.56,21.95-26.78,21.95c-6.05,0-10.98,4.92-10.98,10.98C253.1,290.19,258.02,295.12,264.08,295.12z"/>
</g>
<g>
	<g>
		<path class="st1" d="M50.7,91.75c-24.2-23.76-0.27-38.7-0.27-38.7S74.57,67.66,50.7,91.75z"/>
		<path class="st1" d="M50.17,15.92c24.93,24.48,0.28,39.87,0.28,39.87S25.59,40.74,50.17,15.92z"/>
		<path class="st1" d="M50.27,30.6c15.15,18.42,0.21,29.96,0.21,29.96S35.38,49.23,50.27,30.6z"/>
		<path class="st1" d="M32.91,36.3c23.04,6.18,17.58,24.26,17.58,24.26S31.61,60.11,32.91,36.3z"/>
		<path class="st1" d="M68.85,36.89c0.52,23.84-18.37,23.67-18.37,23.67S45.62,42.32,68.85,36.89z"/>
	</g>
	<path class="st0" d="M92.15,58.94c-8.46,8.01-19.23,13.59-31.23,15.62"/>
	<path class="st0" d="M40.2,74.52C28.61,72.5,18.15,67.16,9.84,59.51"/>
	<path class="st0" d="M92.15,58.94c-7.73-4.54-16.28-7.83-25.36-9.57"/>
	<path class="st0" d="M34.87,49.62c-8.99,1.9-17.42,5.28-25.03,9.89"/>
	<path class="st0" d="M81.41,48.57c12.77-11.86,10.36-26.49,10.36-26.49S73.2,20.05,61.02,39.65"/>
	<path class="st0" d="M21.02,48.99C8.09,37.31,10.3,22.65,10.3,22.65s16.58-3.44,29.03,15.99"/>
	<path class="st0" d="M72.27,27.71c0,0,2.51-4.54,1.5-15.08c0,0-8.72-0.02-17.59,10.27"/>
	<path class="st0" d="M28.73,27.38c0,0-3.22-3.86-2.35-14.41c0,0,8.93-0.23,17.94,9.94"/>
	<path class="st0" d="M79.51,70.7c0,0,3.8,1.89,7.17,4.48c0,0-7.41,8.54-28.18,6.26"/>
	<path class="st0" d="M21.58,71.11c0,0-3.77,1.95-7.11,4.58c0,0,7.5,8.36,28.24,5.78"/>
</g>
<g>
	<path class="st0" d="M113.56,476.02c0,0-2.48-10.76-14.61-10.13C98.95,465.89,100.22,476.23,113.56,476.02z"/>
	<path class="st0" d="M113.56,476.02c0,0,2.48-10.76,14.61-10.13C128.17,465.89,126.91,476.23,113.56,476.02z"/>
	<path class="st0" d="M116.17,470.91c2.59-7.94-2.89-12.66-2.89-12.66c-3.53,4.71-3.57,9.03-2.68,12.22"/>
</g>
<g>
	<path class="st0" d="M34.46,473.75c0,0,9.87-4.96,6.38-16.59C40.84,457.16,31.1,460.83,34.46,473.75z"/>
	<path class="st0" d="M34.46,473.75c11.63,4.68,17.2-4.49,17.2-4.49c-5.41-2.31-9.62-1.33-12.5,0.29"/>
</g>
<g>
	<path class="st0" d="M41.58,293.85c-4.49-2.81-7.71-7.4-8.57-12.82c-0.06-0.31-0.1-0.65-0.13-0.98c-0.01-0.05-0.02-0.08-0.02-0.13
		l-0.09-0.99l-2.9-29.64c0-1.84,0.91-3.49,2.32-4.51c0.97-0.72,2.19-1.14,3.51-1.14h43.56c1.4,0,2.68,0.48,3.69,1.28
		c1.31,1.03,2.15,2.6,2.15,4.37l-3.01,30.63c-0.89,9.17-8.52,16.27-17.85,16.88"/>
	<path class="st0" d="M71.16,276.27l-6.94,20.54c0,0-3.36,10.12-21.5,10.48c-18.13,0.36-27.02-9.69-27.61-21.74
		c-0.25-5.24,0-11.1,7.98-12.11c7.98-1.01,9.67,5.51,9.67,5.51"/>
	<path class="st0" d="M45.94,276.27c0,0,0,9.79-0.5,13.04c0,0-1.27,4.96-8.56,6.19c-5.27,0.89-9.86-2.53-10.17-4.92"/>
	<path class="st0" d="M32.85,279.93c0,0,1.79,7.08-5.91,7.81c-5.22-0.12-5.46-6.28-3.01-6.04"/>
	<path class="st0" d="M82.93,244.95v-0.82c0-5.8-4.7-10.5-10.5-10.5H42.67c-5.8,0-10.49,4.7-10.49,10.5v0.69"/>
	<path class="st0" d="M64.88,233.63c0-4.05-3.28-7.32-7.32-7.32c-4.05,0-7.32,3.28-7.32,7.32"/>
	<path class="st0" d="M67.8,269.46c0.26-9.8,8.98-8.98,8.98-8.98S77.59,269.2,67.8,269.46z"/>
	<path class="st0" d="M47.02,269.46c-0.26-9.8-8.98-8.98-8.98-8.98S37.23,269.2,47.02,269.46z"/>
	<line class="st0" x1="63.23" y1="277.02" x2="53.56" y2="277.02"/>
	<line class="st0" x1="60.89" y1="281.8" x2="53.56" y2="281.8"/>
	<line class="st0" x1="58.56" y1="286.58" x2="53.56" y2="286.58"/>
	<path class="st0" d="M80.27,237.14c0,0,17.65-6.31,16.47,9.82c-0.96,13.21-6.95,17.27-1.36,28.44c2.39,4.79,3.35,17.4-1.9,24.38
		c-6.98,9.27-21.81,9.97-24.76,0.51"/>
	<path class="st0" d="M34.72,237.26c0,0-17.98-6.43-16.8,9.7c0.8,10.9,5.02,15.57,3.32,23.16c0,0-0.66,1.82-1.24,4.08"/>
</g>
<g>
	<path class="st0" d="M67.13,460.25c0,0,1,11.98,13.76,13.76"/>
	<path class="st0" d="M67.13,460.25c0,0,11.98,1,13.76,13.76"/>
</g>
<g>
	<g>
		<g>
			<path class="st0" d="M249.2,187.91c0,0,24.68,12.41,36.54,3.97c2.78-2.41,3.15-5.03,0-7.94c-7.99-5.68-21.79-1.91-29.95,1.16"/>
			<path class="st0" d="M242.1,190.91c-8.22,3.03-21.62,6.54-29.45,0.97c-2.78-2.41-3.15-5.03,0-7.94
				c11.87-8.44,36.54,3.97,36.54,3.97"/>
		</g>
		<path class="st0" d="M252.66,181.49c0.57-0.52,1.21-1.1,1.88-1.73c3.54-3.32,8.1-8.15,9.23-14.24c2.22-11.98-8.29-17.3-8.29-17.3
			s-5.79-3.26-12.55,0c0,0-10.52,5.32-8.29,17.3c1.34,7.25,7.54,12.71,11.11,15.97"/>
		<path class="st0" d="M247.4,122.71c0,0,1.25-3.41,2.96,0c0,0,11.92,17.52-1.48,19.69C248.88,142.39,237.03,141.46,247.4,122.71z"
			/>
	</g>
	<g>
		<g>
			<line class="st0" x1="277.1" y1="149.21" x2="287.42" y2="145.91"/>
		</g>
		<g>
			<line class="st0" x1="272.6" y1="158.69" x2="289.43" y2="158.79"/>
		</g>
		<g>
			<line class="st0" x1="272.07" y1="166.58" x2="287.37" y2="171.65"/>
		</g>
		<g>
			<line class="st0" x1="222.52" y1="177.03" x2="228.68" y2="172.59"/>
		</g>
		<g>
			<line class="st0" x1="208.18" y1="171.47" x2="226.14" y2="165.75"/>
		</g>
		<g>
			<line class="st0" x1="208.18" y1="158.6" x2="225.79" y2="158.7"/>
		</g>
		<g>
			<line class="st0" x1="215.57" y1="148.17" x2="208.24" y2="145.74"/>
			<line class="st0" x1="222.46" y1="150.45" x2="227.46" y2="152.11"/>
		</g>
		<g>
			<line class="st0" x1="209.43" y1="130.64" x2="230.85" y2="146.39"/>
		</g>
		<g>
			<line class="st0" x1="223.69" y1="125.25" x2="219.93" y2="119.99"/>
			<line class="st0" x1="227.3" y1="130.29" x2="235.61" y2="141.9"/>
		</g>
		<g>
			<line class="st0" x1="236.63" y1="124.12" x2="235.02" y2="119.07"/>
		</g>
		<g>
			<line class="st0" x1="259.22" y1="123.76" x2="260.75" y2="119.13"/>
		</g>
		<g>
			<line class="st0" x1="274.11" y1="122.88" x2="276.92" y2="119.07"/>
			<line class="st0" x1="260.79" y1="140.64" x2="270.9" y2="127.22"/>
		</g>
		<g>
			<line class="st0" x1="266.41" y1="145.07" x2="287.37" y2="129.9"/>
		</g>
	</g>
</g>
<g>
	<path class="st0" d="M117.59,43.64c0.15,19.97,14.65,36.52,33.68,39.87c2.32,0.42,4.7,0.63,7.14,0.63c2.23,0,4.41-0.17,6.54-0.52
		c0.07-0.01,0.15-0.02,0.22-0.04c19.24-3.21,33.93-19.88,34.05-40.01"/>
	<g>
		<path class="st0" d="M117.59,43.64c6.11,0.64,11.92,2.29,17.26,4.76c6.21,2.87,11.81,6.87,16.53,11.73
			c2.5,2.58,4.75,5.39,6.71,8.41c1.5,2.3,2.83,4.71,3.98,7.23"/>
		<path class="st0" d="M161.74,63.55c0.97-1.18,1.99-2.33,3.06-3.43c4.69-4.84,10.25-8.82,16.44-11.69
			c5.55-2.59,11.61-4.27,17.98-4.88"/>
	</g>
	<path class="st0" d="M147.91,39.41c0.65-12.47,10.18-20,10.18-20s9.53,7.59,10.18,20.07"/>
	<line class="st0" x1="158.09" y1="19.41" x2="158.09" y2="34.64"/>
	<line class="st0" x1="158.09" y1="37.07" x2="158.09" y2="43.32"/>
	<g>
		<path class="st0" d="M151.38,60.13c1.61-3.95,3.98-7.59,6.7-10.87c3.14-3.77,6.74-7.05,10.19-9.78c0.45-0.35,0.91-0.7,1.35-1.04
			c6.81-5.17,12.69-8.05,12.69-8.05c0.08,1.46,0.13,2.92,0.13,4.4c0,4.65-0.41,9.22-1.2,13.66"/>
	</g>
	<g>
		<path class="st0" d="M158.08,49.26c-9.83-11.8-24.28-18.87-24.28-18.87c-0.08,1.46-0.13,2.92-0.13,4.4
			c0,4.65,0.38,9.18,1.18,13.61"/>
	</g>
</g>
</svg>
