<?xml version="1.0" encoding="utf-8"?>
<!-- Generator: Adobe Illustrator 24.0.1, SVG Export Plug-In . SVG Version: 6.00 Build 0)  -->
<svg version="1.1" id="Layer_1" xmlns="http://www.w3.org/2000/svg" xmlns:xlink="http://www.w3.org/1999/xlink" x="0px" y="0px"
	 viewBox="0 0 1080 1920" style="enable-background:new 0 0 1080 1920;" xml:space="preserve">
<style type="text/css">
	.st0{fill:#0C4222;}
	.st1{fill:#FFFFFF;}
</style>
<path class="st0" d="M533.94,1592.65c-284.58,3.34-518.13-235.42-518.21-517.86C15.65,800.8,238.48,555.21,537.91,555.91
	c283.29,0.66,516.86,234.77,515.38,519.81C1051.74,1374.32,807.11,1596.54,533.94,1592.65z M756.83,941.66
	c-29.28,8.86-53.24,16.1-77.22,23.36c-38.1-68.32-38.1-68.32-92.3-102.78c35.58-41.42,38.09-85.2,6.76-117.56
	c-27.59-28.5-70.58-30.43-103.77-5.37c-16.57,12.51-25.13,29.24-27.95,49.02c-4.23,29.74,7.77,54.07,30.1,75.69
	C442.64,883.04,412.32,917.15,400,965c-22.52-6.73-42.74-13.02-63.12-18.76c-10.32-2.9-16.71,0.08-16.61,12.46
	c0.27,35.07,0.1,70.14,0.1,108.29c-4.6,0-11.73-0.66-18.7,0.12c-24.46,2.75-48.96,5.39-73.25,9.28
	c-15.28,2.44-24.26,9.84-16.81,27.77c8.66,20.83,13.56,43.52,24.15,63.21c55.28,102.82,167.51,151.56,282.08,124.5
	c9.9-2.34,21.19-3.91,30.79-1.57c34.63,8.46,68.87,12.71,104.85,8.19c93.62-11.77,189.63-96.59,210.33-188.2
	c6.36-28.13,6.07-30.08-22.86-35.27c-28.57-5.12-57.62-7.51-84.1-10.81C756.83,1025.17,756.83,986.3,756.83,941.66z M484.02,1391.38
	c-4.69-7.84-7.03-17.58-12.59-20.03c-19.88-8.75-40.61-8.96-58.21,5.93c-16.24,13.74-24.42,31.17-18.6,53.22
	c6.04,22.88,20.22,37.07,43.63,41.19c27.82,4.9,45.88-9.76,46.97-37.59c0.23-5.87,0.66-11.73,1.1-19.16c-6.97,0-13.12,0-19.66,0
	c0.54,7.87,0.57,14.44,1.51,20.87c2.5,17.01-8.95,20.8-21.55,21.82c-17.33,1.41-35.92-18.19-36.95-37.6
	c-1.23-23.05,11.15-38.92,32.91-38.38C455.01,1381.96,467.32,1387.26,484.02,1391.38z M519.11,1380.99c17.16,0,35.56,0,52.93,0
	c-7.53-16.35-42.76-20.86-71.04-11.44c0,33.62,0,67.02,0,100.29c48.11,7.01,65.82,3.69,68.95-14.14c-16.38,0-34.41,0-50.84,0
	c0-11.19,0-20.85,0-31.7c15.57,0,29.93,0,45.28,0c0-6.25,0-12.78,0-18.11c-15.73,0-30.05,0-45.28,0
	C519.11,1397.46,519.11,1390.3,519.11,1380.99z M573.31,1376.83c0.85,2.14,1.7,4.28,2.55,6.42c14.12,0,28.23,0,42.86,0
	c0,29.49,0,57.13,0,86.48c6.69-0.41,12.77-0.77,17.18-1.04c0-17.55-0.26-32.79,0.05-48.02c0.86-41.88-7.62-40.59,41.46-38.2
	c0.97,0.05,2.01-1.37,3-2.13c-5.89-15.01-21.07-17.48-89.18-12.83C585.08,1367.94,579.28,1373.6,573.31,1376.83z M155.21,1066.43
	c-0.09,3.13-0.18,6.26-0.27,9.39c7.46,5.46,15.74,16.06,22.18,15.05c7.53-1.18,17.64-11.91,18.72-19.61
	c0.8-5.69-10.59-17.83-17.43-18.54C171.23,1051.98,162.99,1061.43,155.21,1066.43z M543.63,665.51c-3.1-0.09-6.19-0.18-9.29-0.27
	c-5.2,7.69-14.56,15.49-14.37,23.05c0.17,6.8,11.65,19.34,16.62,18.63c7.89-1.12,19.03-10.34,20.36-17.67
	C558.2,682.36,548.51,673.5,543.63,665.51z M328.24,917.77c-0.03-2.95-0.06-5.91-0.09-8.86c-7.86-4.96-15.23-12.75-23.7-14.22
	c-13.01-2.27-20.55,8.77-18.23,19.64c1.54,7.23,11.92,17.18,18.7,17.46C312.48,932.1,320.45,922.85,328.24,917.77z M922.02,1077.81
	c-0.12-2.93-0.25-5.87-0.37-8.8c-7.96-4.84-16.76-14.45-23.65-13.23c-7.29,1.29-16.7,12.4-17.64,20.14
	c-0.62,5.12,11.96,16.5,18.78,16.62C906.68,1092.66,914.39,1083.13,922.02,1077.81z M776.68,891.43c-3.06,0.03-6.11,0.05-9.17,0.08
	c-4.97,7.26-12.65,13.97-14.29,21.92c-2.55,12.35,5.9,22.31,18.1,20.15c7.44-1.31,17.91-11.31,18.57-18.2
	C790.59,907.88,781.5,899.45,776.68,891.43z"/>
<path class="st1" d="M756.83,941.66c0,44.64,0,83.51,0,122.55c26.48,3.3,55.54,5.69,84.1,10.81c28.93,5.18,29.22,7.13,22.86,35.27
	c-20.7,91.61-116.71,176.43-210.33,188.2c-35.97,4.52-70.21,0.27-104.85-8.19c-9.6-2.34-20.88-0.77-30.79,1.57
	c-114.57,27.06-226.8-21.68-282.08-124.5c-10.59-19.7-15.49-42.38-24.15-63.21c-7.45-17.93,1.53-25.33,16.81-27.77
	c24.29-3.88,48.79-6.53,73.25-9.28c6.97-0.78,14.1-0.12,18.7-0.12c0-38.15,0.18-73.22-0.1-108.29c-0.1-12.38,6.3-15.36,16.61-12.46
	c20.38,5.73,40.61,12.03,63.12,18.76c12.32-47.85,42.64-81.96,92.44-100.99c-22.33-21.62-34.33-45.95-30.1-75.69
	c2.81-19.78,11.37-36.51,27.95-49.02c33.19-25.06,76.18-23.12,103.77,5.37c31.34,32.37,28.82,76.14-6.76,117.56
	c54.21,34.46,54.21,34.46,92.3,102.78C703.59,957.76,727.55,950.52,756.83,941.66z M522.19,1256.57
	c-1.96-8.16-2.61-12.74-4.16-16.99c-37.35-102.8-156.11-168.75-263.26-146.27c-23.1,4.85-24.52,6.63-16.19,29.23
	c26.68,72.37,77.61,120.33,150.13,144.91c34.62,11.73,70.35,17.16,110.48,5.7c-82.32-30.16-150.52-74.69-204.64-139.69
	C361.73,1188.32,434.39,1232.63,522.19,1256.57z M779.59,1132.34c1.85,2.03,3.69,4.07,5.54,6.1
	c-31.59,25.82-61.51,54.13-95.24,76.75c-33.48,22.46-70.8,39.19-108.44,59.51c9.25,0.81,15.89,1.43,22.53,1.97
	c100.6,8.22,202.69-60.13,234.32-155.88c5.84-17.68,2.07-24.46-16.44-28.69c-103.37-23.64-224.64,43.21-263.23,146.33
	c-1.69,4.53-2.37,9.43-4.89,19.76c31.11-12.26,58.21-21.3,83.8-33.5c25.2-12.01,49.64-26.07,73.01-41.37
	C734.46,1167.68,756.65,1149.44,779.59,1132.34z M738.82,972.08c-82.68,9.04-176.65,112.94-185.5,218.92
	c22.11-22.72,46.46-47.18,70.14-72.29c13.1-13.89,26.01-28.17,37.24-43.56c11.12-15.23,20.01-32.08,29.88-48.22
	c1.53,0.75,3.07,1.49,4.6,2.24c-7.85,18.41-15.7,36.82-24.81,58.18c18.1-4.76,33.5-7.93,48.18-13.13
	c5.21-1.85,11.8-8.26,12.39-13.23C734.4,1032.18,736.25,1003.18,738.82,972.08z M380.05,1029.36c2.58-1.54,5.16-3.07,7.75-4.61
	c22.51,75.42,94.78,108.84,136.59,175.11c-18.56-136.98-121.67-224.3-183.3-226.52c-5.93,31.14-3.26,61.89,5.16,92.3
	c0.9,3.25,4.6,7.12,7.8,8.09c15.66,4.73,31.59,8.57,52.16,13.97c-5.77-12.44-9.92-21.11-13.84-29.89
	C388.15,1048.37,384.14,1038.85,380.05,1029.36z M592.77,799.34c-0.08-30.31-23.96-54.49-54.14-54.81
	c-30.44-0.32-56.18,25.28-55.94,55.63c0.24,30.72,25.34,54.72,56.82,54.35C570.09,854.14,592.85,830.56,592.77,799.34z
	 M525.9,1106.88c0-56.93,0-118.95,0-181.58c-40.83,10.58-57.98,29.15-62.96,68.2c-1.16,9.12-1.03,20.7,3.59,27.86
	C486.25,1051.9,507.87,1081.22,525.9,1106.88z M550.8,1107.98c18.37-25.95,40.47-57.13,62.49-88.37c1.49-2.11,2.86-4.52,3.5-7
	c9.48-36.87-25.34-83.88-65.98-85.65C550.8,989.4,550.8,1051.78,550.8,1107.98z M430.58,993.1c2.4-0.68,4.8-1.37,7.19-2.05
	c18.67-56.05,23.88-61.15,81.25-88.82c5.58-2.69,7.29-13.41,11.95-22.7c-52.65,3.31-98.38,41.4-107.48,87.24
	C421.91,974.77,428.02,984.29,430.58,993.1z M641.7,997.81c6.52-11.77,14.05-18.91,13.43-25.27
	c-4.41-45.71-57.81-92.43-103.11-91.79c-5.32,14.51,0.28,21.67,14.92,25.19c27.72,6.67,46.65,24.87,58.93,49.87
	C631.37,966.99,634.79,979.19,641.7,997.81z"/>
<path class="st1" d="M484.02,1391.38c-16.71-4.12-29.01-9.42-41.43-9.73c-21.76-0.53-34.14,15.33-32.91,38.38
	c1.03,19.4,19.62,39,36.95,37.6c12.59-1.02,24.05-4.81,21.55-21.82c-0.94-6.43-0.97-13-1.51-20.87c6.54,0,12.7,0,19.66,0
	c-0.43,7.43-0.86,13.29-1.1,19.16c-1.1,27.83-19.15,42.49-46.97,37.59c-23.41-4.12-37.59-18.31-43.63-41.19
	c-5.82-22.05,2.36-39.47,18.6-53.22c17.6-14.89,38.34-14.68,58.21-5.93C476.99,1373.8,479.34,1383.54,484.02,1391.38z"/>
<path class="st1" d="M519.11,1383.25c0,9.01,0,14.47,0,22.64c15.23,0,29.55,0,45.28,0c0,5.16,0,11.86,0,18.11
	c-15.35,0-29.71,0-45.28,0c0,10.85,0,20.51,0,31.7c16.44,0,30.74,0,45.97,0c-2.91,17.29-19.37,20.51-64.08,13.71
	c0-32.26,0-64.65,0-97.25c26.28-9.14,59.02-4.76,66.02,11.09C550.88,1383.25,535.53,1383.25,519.11,1383.25z"/>
<path class="st1" d="M573.31,1376.83c5.97-3.23,11.77-8.89,17.93-9.31c68.1-4.65,83.29-2.18,89.19,12.84
	c-1,0.75-2.04,2.16-3.01,2.11c-49.09-2.39-40.61-3.69-41.46,38.2c-0.31,15.23-0.05,30.47-0.05,48.02
	c-4.41,0.27-10.49,0.64-17.18,1.04c0-29.36,0-56.99,0-86.48c-14.62,0-28.74,0-42.86,0C575.02,1381.11,574.17,1378.97,573.31,1376.83
	z"/>
<path class="st1" d="M155.21,1066.43c7.78-5,16.02-14.46,23.2-13.72c6.84,0.71,18.23,12.85,17.43,18.54
	c-1.08,7.7-11.19,18.43-18.72,19.61c-6.45,1.01-14.72-9.58-22.18-15.05C155.03,1072.7,155.12,1069.57,155.21,1066.43z"/>
<path class="st1" d="M543.63,665.51c4.88,7.99,14.56,16.85,13.32,23.74c-1.32,7.32-12.47,16.55-20.36,17.67
	c-4.97,0.7-16.45-11.83-16.62-18.63c-0.19-7.56,9.17-15.35,14.37-23.05C537.44,665.33,540.54,665.42,543.63,665.51z"/>
<path class="st1" d="M328.24,917.77c-7.79,5.08-15.76,14.33-23.32,14.01c-6.78-0.28-17.16-10.23-18.7-17.46
	c-2.32-10.87,5.22-21.91,18.23-19.64c8.47,1.47,15.84,9.26,23.7,14.22C328.18,911.86,328.21,914.81,328.24,917.77z"/>
<path class="st1" d="M922.02,1077.81c-7.63,5.32-15.33,14.85-22.87,14.72c-6.82-0.12-19.4-11.5-18.78-16.62
	c0.94-7.74,10.34-18.84,17.64-20.14c6.89-1.22,15.69,8.39,23.65,13.23C921.77,1071.95,921.89,1074.88,922.02,1077.81z"/>
<path class="st1" d="M776.68,891.43c4.82,8.02,13.91,16.45,13.2,23.95c-0.65,6.9-11.13,16.89-18.57,18.2
	c-12.2,2.15-20.65-7.8-18.1-20.15c1.64-7.95,9.32-14.65,14.29-21.92C770.57,891.48,773.63,891.46,776.68,891.43z"/>
<path class="st0" d="M522.19,1256.57c-87.8-23.94-160.46-68.25-227.63-123.12c54.12,65,122.32,109.53,204.64,139.69
	c-40.13,11.47-75.86,6.04-110.48-5.7c-72.52-24.58-123.44-72.54-150.13-144.91c-8.33-22.6-6.91-24.38,16.19-29.23
	c107.14-22.48,225.91,43.47,263.26,146.27C519.58,1243.83,520.23,1248.41,522.19,1256.57z"/>
<path class="st0" d="M779.59,1132.34c-22.94,17.1-45.14,35.34-69.03,50.99c-23.37,15.3-47.81,29.35-73.01,41.37
	c-25.59,12.2-52.69,21.24-83.8,33.5c2.52-10.33,3.19-15.23,4.89-19.76c38.58-103.12,159.86-169.96,263.23-146.33
	c18.51,4.23,22.28,11.01,16.44,28.69c-31.63,95.75-133.72,164.1-234.32,155.88c-6.64-0.54-13.28-1.16-22.53-1.97
	c37.64-20.32,74.96-37.05,108.44-59.51c33.73-22.62,63.65-50.93,95.24-76.75C783.29,1136.4,781.44,1134.37,779.59,1132.34z"/>
<path class="st0" d="M738.82,972.08c-2.57,31.11-4.42,60.1-7.88,88.91c-0.6,4.97-7.19,11.39-12.39,13.23
	c-14.68,5.2-30.08,8.37-48.18,13.13c9.11-21.36,16.96-39.77,24.81-58.18c-1.53-0.75-3.07-1.49-4.6-2.24
	c-9.87,16.14-18.77,32.99-29.88,48.22c-11.23,15.39-24.14,29.67-37.24,43.56c-23.67,25.11-48.03,49.58-70.14,72.29
	C562.17,1085.02,656.14,981.12,738.82,972.08z"/>
<path class="st0" d="M380.05,1029.36c4.09,9.49,8.1,19.02,12.31,28.45c3.92,8.78,8.07,17.46,13.84,29.89
	c-20.56-5.4-36.5-9.24-52.16-13.97c-3.19-0.96-6.9-4.84-7.8-8.09c-8.43-30.41-11.09-61.16-5.16-92.3
	c61.63,2.22,164.75,89.54,183.3,226.52c-41.82-66.28-114.09-99.69-136.59-175.11C385.21,1026.29,382.63,1027.82,380.05,1029.36z"/>
<path class="st0" d="M592.77,799.34c0.08,31.23-22.68,54.8-53.26,55.17c-31.48,0.38-56.58-23.63-56.82-54.35
	c-0.24-30.35,25.5-55.95,55.94-55.63C568.81,744.85,592.69,769.02,592.77,799.34z"/>
<path class="st0" d="M525.9,1106.88c-18.03-25.65-39.65-54.98-59.37-85.53c-4.62-7.16-4.75-18.74-3.59-27.86
	c4.98-39.05,22.13-57.62,62.96-68.2C525.9,987.93,525.9,1049.94,525.9,1106.88z"/>
<path class="st0" d="M550.8,1107.98c0-56.2,0-118.57,0-181.01c40.65,1.76,75.46,48.77,65.98,85.65c-0.64,2.47-2.01,4.88-3.5,7
	C591.27,1050.85,569.17,1082.03,550.8,1107.98z"/>
<path class="st0" d="M430.58,993.1c-2.56-8.82-8.67-18.34-7.08-26.33c9.09-45.85,54.83-83.93,107.48-87.24
	c-4.66,9.29-6.37,20.01-11.95,22.7c-57.36,27.67-62.58,32.77-81.25,88.82C435.38,991.74,432.98,992.42,430.58,993.1z"/>
<path class="st0" d="M641.7,997.81c-6.91-18.62-10.33-30.82-15.83-42.01c-12.28-25-31.21-43.2-58.93-49.87
	c-14.64-3.52-20.25-10.68-14.92-25.19c45.3-0.63,98.7,46.08,103.11,91.79C655.75,978.89,648.23,986.03,641.7,997.81z"/>
</svg>
